<svg width="123" height="97" viewBox="0 0 123 97" fill="none" xmlns="http://www.w3.org/2000/svg">
<path fill-rule="evenodd" clip-rule="evenodd" d="M60.6999 4.53416C62.3429 4.35838 64.2715 4.15204 66.0589 4.06C67.472 3.98724 68.8352 4.02786 69.8677 4.05862C69.9295 4.06047 69.9902 4.06227 70.0496 4.06402C71.2047 4.09796 71.9917 4.11324 72.7264 4.06687C72.9907 4.05019 73.2665 4.03106 73.5532 4.01117C76.467 3.80906 80.4993 3.52937 84.8851 4.96013C88.1796 6.03489 90.9957 7.55303 93.286 8.85089C93.8142 9.15024 94.3045 9.43143 94.7671 9.69672C96.4687 10.6725 97.7955 11.4334 99.2557 12.0926C103.148 13.8497 108.452 17.5522 109.381 24.6347C109.507 25.5947 109.66 26.6622 109.821 27.7901C110.166 30.1962 110.55 32.8769 110.795 35.3734C111.326 40.7722 109.082 44.9811 107.274 47.6814C107.316 49.004 107.174 50.6964 106.47 52.4542C105.481 54.9199 103.701 56.7376 101.532 57.7432C101.427 57.8265 101.334 57.898 101.264 57.952C101.112 58.0689 101.06 58.1077 100.987 58.1654C100.964 58.1829 100.948 58.1959 100.937 58.2051C97.9423 61.1731 94.2234 63.157 89.724 64.071C89.1091 64.1959 88.3534 64.3731 87.5022 64.5727C85.1891 65.1151 82.1707 65.8229 79.3567 66.0957L70.215 66.982C70.1222 66.991 70.0267 67.0003 69.9287 67.01C66.9388 67.3032 61.5975 67.827 56.6937 65.3462C56.3446 65.4538 56.0045 65.5527 55.6848 65.6375C53.3325 66.2613 51.2582 66.1833 49.7735 66.0557C43.9693 65.5569 38.7525 65.1925 33.1322 65.2715C32.801 65.2762 32.4239 65.286 32.0085 65.2968C29.1065 65.3723 24.3368 65.4964 20.3201 64.2513C18.6857 63.7447 16.1813 62.9411 13.8094 61.8888C12.6215 61.3618 11.2827 60.6928 10.0161 59.8593C8.85395 59.0946 7.16557 57.8162 5.85398 55.8529C4.09617 53.2215 3.90961 50.4655 3.85842 49.4055C3.83322 48.8838 3.83318 48.3526 3.83316 48.1028C3.83316 48.069 3.83316 48.0404 3.83309 48.0176C3.83305 48.0028 3.833 47.9889 3.83293 47.9759C3.83107 47.9649 3.82899 47.9528 3.82671 47.9396C3.79186 47.7364 3.71109 47.2658 3.65404 46.762C3.53368 45.6992 3.36334 43.3709 4.4121 40.8372C5.05332 39.2881 6.06639 37.3513 7.33421 35.6928C8.43813 34.2487 10.3483 31.8088 13.9967 30.2786C15.7469 29.5446 17.4984 29.2159 18.555 29.0247C18.8563 28.9701 19.1148 28.9242 19.3401 28.8842C20.1154 28.7465 20.4976 28.6786 20.8803 28.5693C21.2997 28.4494 21.6234 28.2729 22.1047 27.8674C22.3913 27.626 22.7087 27.3245 23.1723 26.8617C23.2454 26.7888 23.3276 26.7062 23.417 26.6162C23.6748 25.7488 24.0094 24.8738 24.4406 24.013C25.5818 21.7347 27.2467 20.0883 28.3291 19.1123C29.4294 18.1201 30.6196 17.2251 31.4273 16.6178C31.4754 16.5816 31.5222 16.5464 31.5675 16.5123C34.6968 14.1568 38.0775 11.8102 41.5395 9.64064C47.2943 6.03417 53.8997 5.20533 59.0049 4.71037C59.5156 4.66086 60.0879 4.59963 60.6999 4.53416Z" fill="#FCDDD9"/>
<path d="M88.0697 24.9431L119.334 76.6637H56.8054L88.0697 24.9431Z" fill="#7E868B"/>
<path d="M97.5411 39.3896L87.6579 35.1485L79.6963 38.8756L87.6579 24.6707L97.5411 39.3896Z" fill="white"/>
<path d="M88.4818 40.4798L86.011 32.3026H90.678L88.4818 40.4798Z" fill="white"/>
<path fill-rule="evenodd" clip-rule="evenodd" d="M9.90396 90.5164L51.3336 21.4755L92.7687 90.5171H62.3913L57.1694 64.2864L51.1693 50.804L45.7689 62.9388L40.2813 90.5171H9.90357L9.90361 90.517H5.97241V83.6117H9.90396V90.5164ZM96.6946 83.6117H92.7687V90.517H96.6946V83.6117Z" fill="#F16059"/>
<path d="M30.5078 67.3116H70.2443V97H30.5078V67.3116Z" fill="#292929"/>
<g filter="url(#filter0_d)">
<path d="M30.5078 64.7472H70.2443V67.3116H30.5078V64.7472Z" fill="white"/>
</g>
<path d="M40.8384 75.6453H56.9801V76.6069H40.8384V75.6453Z" fill="#B88DE2"/>
<path d="M40.8384 84.1394H48.425V85.2613H40.8384V84.1394Z" fill="#E2E3F3"/>
<path d="M52.4604 84.1394H57.4644V85.2613H52.4604V84.1394Z" fill="#B88DE2"/>
<path d="M59.5627 81.5752H64.7281V82.5368H59.5627V81.5752Z" fill="#B88DE2"/>
<path d="M58.1101 75.6453H61.9841V76.6069H58.1101V75.6453Z" fill="#FE8181"/>
<path d="M49.5549 84.1394H51.3305V85.2613H49.5549V84.1394Z" fill="#FE8181"/>
<path d="M58.5942 84.1394H60.3698V85.2613H58.5942V84.1394Z" fill="#FE8181"/>
<path d="M56.9802 81.5752H58.7558V82.5368H56.9802V81.5752Z" fill="#FE8181"/>
<path d="M40.8384 86.7037H44.551V87.8255H40.8384V86.7037Z" fill="#FE8181"/>
<path d="M40.8384 78.5302H44.551V79.652H40.8384V78.5302Z" fill="#FE8181"/>
<path d="M46.1653 86.7037H57.1417V87.8255H46.1653V86.7037Z" fill="#FE8181"/>
<path d="M58.7559 86.7037H62.4685V87.8255H58.7559V86.7037Z" fill="#2BA8EE"/>
<path d="M45.3582 78.5302H52.9448V79.652H45.3582V78.5302Z" fill="#2BA8EE"/>
<path d="M40.8384 81.5752H44.551V82.5368H40.8384V81.5752Z" fill="#2BA8EE"/>
<path d="M45.3582 81.5752H56.3345V82.5368H45.3582V81.5752Z" fill="#2BA8EE"/>
<path d="M37.7715 75.6453H39.2242V76.6069H37.7715V75.6453Z" fill="#C7CDD1"/>
<path d="M37.7715 78.5302H39.2243V79.652H37.7715V78.5302Z" fill="#C7CDD1"/>
<path d="M37.7715 81.5752H39.2243V82.5368H37.7715V81.5752Z" fill="#C7CDD1"/>
<path d="M37.7715 84.1394H39.2243V85.2613H37.7715V84.1394Z" fill="#C7CDD1"/>
<path d="M37.7715 86.7037H39.2243V87.8255H37.7715V86.7037Z" fill="#C7CDD1"/>
<path fill-rule="evenodd" clip-rule="evenodd" d="M51.5905 12.1802C52.1904 12.1802 52.6767 12.663 52.6767 13.2586C52.6767 14.5996 52.6 17.2544 52.524 19.2332C52.4861 20.2207 52.4476 21.0602 52.4179 21.4907C52.4107 21.5951 52.4026 21.6963 52.3932 21.7738C52.3931 21.7746 52.393 21.7755 52.3929 21.7767C52.3903 21.7984 52.379 21.895 52.3495 21.9955C52.3411 22.0238 52.3168 22.1047 52.2669 22.1992C52.2421 22.2461 52.1909 22.3353 52.1035 22.4298C52.0214 22.5183 51.8375 22.6868 51.5399 22.7528C50.7872 22.9196 50.4058 22.3125 50.3723 22.2575C50.291 22.1242 50.2588 22.0041 50.2506 21.9733L50.2503 21.9723C50.2177 21.8507 50.2114 21.7328 50.2105 21.7167C50.2105 21.7159 50.2104 21.7154 50.2104 21.7151C50.2075 21.6702 50.2057 21.6209 50.2044 21.5717C50.2019 21.4717 50.2007 21.3374 50.2007 21.1693C50.2007 21.0221 50.2304 20.8817 50.2843 20.7538C50.3054 20.3318 50.3292 19.7779 50.3533 19.1511C50.4292 17.1745 50.5043 14.5552 50.5043 13.2586C50.5043 12.663 50.9906 12.1802 51.5905 12.1802ZM50.2365 21.5157C50.2349 21.5292 50.2348 21.5262 50.237 21.5118C50.2368 21.5132 50.2367 21.5145 50.2365 21.5157ZM52.378 21.5715C52.3798 21.5904 52.3794 21.5948 52.3783 21.5771C52.3782 21.5759 52.3781 21.5741 52.378 21.5715Z" fill="#292929"/>
<path fill-rule="evenodd" clip-rule="evenodd" d="M50.8334 13.9319C50.962 13.3502 51.5412 12.9821 52.1271 13.1098C52.5033 13.1918 53.8855 13.6026 55.0413 14.0156C55.6142 14.2203 56.2037 14.4506 56.6046 14.6643C56.7086 14.7197 56.8211 14.7851 56.9263 14.8598C57.0136 14.9219 57.178 15.0467 57.3087 15.2389C57.4491 15.4452 57.6747 15.9501 57.3501 16.4845C57.1105 16.8789 56.7223 16.9946 56.6125 17.0257C55.8829 17.2327 54.4958 17.3874 53.5783 17.4856C53.4533 17.499 53.3363 17.5114 53.2284 17.5228C53.1331 17.5329 53.0449 17.5422 52.9645 17.5508C52.8241 17.6166 52.6671 17.6534 52.5016 17.6534C52.4164 17.6534 52.3376 17.6525 52.2718 17.6497C52.2404 17.6483 52.1962 17.6459 52.1488 17.6407C52.1255 17.6381 52.0871 17.6333 52.0417 17.6243L52.041 17.6242C52.0119 17.6184 51.9032 17.5969 51.7782 17.5378C51.7184 17.5094 51.5767 17.437 51.442 17.2907C51.2875 17.1231 51.1149 16.8199 51.1653 16.4257C51.2096 16.0791 51.4036 15.8652 51.4942 15.7794C51.5933 15.6855 51.688 15.6317 51.7337 15.6074C51.8795 15.5299 52.0198 15.5013 52.028 15.4997C52.0282 15.4996 52.0283 15.4996 52.0284 15.4996C52.1019 15.4829 52.1809 15.4715 52.232 15.4645C52.2906 15.4565 52.3638 15.4475 52.4482 15.4378C52.0576 15.3203 51.764 15.2388 51.6614 15.2164C51.0755 15.0887 50.7047 14.5136 50.8334 13.9319Z" fill="#292929"/>
<path d="M20.453 34.7776C23.1271 34.7776 25.5693 33.5743 27.1873 31.6027C27.4267 31.311 27.1657 30.8849 26.7958 30.9546C22.5896 31.7468 18.727 28.5573 18.727 24.358C18.727 21.9391 20.0363 19.7147 22.1642 18.517C22.4922 18.3324 22.4097 17.8406 22.037 17.7725C21.5145 17.6772 20.9843 17.6292 20.453 17.6292C15.6675 17.6292 11.7834 21.4645 11.7834 26.2034C11.7834 30.9362 15.6614 34.7776 20.453 34.7776Z" fill="#7E868B"/>
<path d="M3.65316 64.3185C3.72479 64.3224 3.77652 64.3344 3.80835 64.3544C3.84019 64.3703 3.86009 64.3922 3.86805 64.4202C3.87601 64.4481 3.87601 64.48 3.86805 64.5159C3.86407 64.5478 3.86009 64.5797 3.85611 64.6116C3.72877 64.6754 3.55964 64.7213 3.34873 64.7492C3.14179 64.7771 2.92093 64.7971 2.68614 64.809C2.71002 64.8768 2.74385 64.9506 2.78762 65.0304C2.83139 65.1101 2.86721 65.1899 2.89507 65.2697C2.92292 65.3454 2.93685 65.4212 2.93685 65.497C2.93685 65.5728 2.90501 65.6406 2.84134 65.7004C2.86522 65.7562 2.87318 65.8021 2.86522 65.838C2.86124 65.8739 2.84731 65.9038 2.82344 65.9277C2.79956 65.9477 2.76971 65.9656 2.7339 65.9816C2.69808 65.9975 2.66227 66.0135 2.62645 66.0294C2.50309 65.9656 2.37773 65.8539 2.25039 65.6944C2.12703 65.5349 2.00764 65.3634 1.89224 65.1799C1.80071 65.3395 1.73107 65.4671 1.68332 65.5628C1.63556 65.6545 1.60572 65.7223 1.59378 65.7662C1.53409 65.834 1.47837 65.8839 1.42664 65.9158C1.37491 65.9477 1.32317 65.9696 1.27144 65.9816C1.21971 65.9895 1.16599 65.9935 1.11027 65.9935C1.05854 65.9935 1.00283 65.9955 0.943135 65.9995C0.927217 65.9676 0.889412 65.9437 0.82972 65.9277C0.770028 65.9078 0.714315 65.9078 0.662582 65.9277C0.682479 65.8958 0.6785 65.8639 0.650644 65.832C0.626767 65.8001 0.6009 65.7861 0.573044 65.7901C0.60488 65.7223 0.642685 65.6545 0.686459 65.5867C0.734213 65.5149 0.779976 65.4451 0.823751 65.3773C0.871504 65.3095 0.913289 65.2437 0.949104 65.1799C0.988899 65.1121 1.01477 65.0503 1.0267 64.9945C1.03466 64.9785 1.04461 64.9646 1.05655 64.9526C1.06849 64.9366 1.08043 64.9207 1.09237 64.9047C0.945125 64.9247 0.82574 64.9426 0.734213 64.9586C0.646664 64.9745 0.582993 64.9905 0.543198 65.0064C0.447691 65.0024 0.37407 64.9905 0.322337 64.9705C0.270604 64.9506 0.22882 64.9247 0.196984 64.8928C0.165148 64.8569 0.137292 64.819 0.113415 64.7791C0.0935176 64.7392 0.0696408 64.6973 0.0417845 64.6535C0.0656613 64.6216 0.07561 64.5797 0.0716305 64.5278C0.067651 64.472 0.0437742 64.4301 0 64.4022C0.0358152 64.3942 0.0636716 64.3723 0.0835689 64.3364C0.107446 64.3005 0.113415 64.2726 0.101477 64.2526C0.181066 64.2367 0.264635 64.2267 0.352183 64.2227C0.443711 64.2148 0.533249 64.2088 0.620798 64.2048C0.708346 64.1968 0.791915 64.1868 0.871504 64.1749C0.951094 64.1629 1.02073 64.145 1.08043 64.121H1.19981C1.12022 64.0173 1.05456 63.9376 1.00283 63.8817C0.951094 63.8259 0.909309 63.786 0.877474 63.7621C0.841658 63.6903 0.823751 63.6285 0.823751 63.5766C0.823751 63.5248 0.833699 63.4789 0.853597 63.439C0.873494 63.3952 0.899361 63.3533 0.931196 63.3134C0.963032 63.2735 0.994868 63.2297 1.0267 63.1818C1.0665 63.1778 1.11226 63.1579 1.164 63.122C1.21971 63.0861 1.25154 63.0442 1.2595 62.9963C1.2794 63.0203 1.31323 63.0302 1.36098 63.0263C1.40873 63.0183 1.44057 63.0043 1.45649 62.9844C1.50424 63.0362 1.55 63.0941 1.59378 63.1579C1.63755 63.2217 1.67934 63.2855 1.71913 63.3493C1.76291 63.4091 1.80469 63.467 1.84449 63.5228C1.88826 63.5746 1.93601 63.6165 1.98775 63.6484C2.04744 63.6085 2.10514 63.5547 2.16085 63.4869C2.21657 63.4191 2.27427 63.3573 2.33396 63.3014C2.39365 63.2456 2.45732 63.2017 2.52498 63.1698C2.59263 63.1379 2.66426 63.126 2.73987 63.1339C2.78762 63.0821 2.8294 63.0482 2.86522 63.0322C2.90104 63.0163 2.93486 63.0123 2.9667 63.0203C3.00251 63.0243 3.03435 63.0362 3.0622 63.0562C3.09404 63.0721 3.12588 63.0881 3.15771 63.104C3.14975 63.2237 3.09802 63.3692 3.00251 63.5407C2.907 63.7122 2.79558 63.8877 2.66824 64.0672C2.7518 64.0752 2.84532 64.0792 2.94879 64.0792C3.05225 64.0792 3.15174 64.0851 3.24725 64.0971C3.34276 64.1091 3.42832 64.131 3.50393 64.1629C3.57954 64.1948 3.62928 64.2467 3.65316 64.3185Z" fill="#292929"/>
<path d="M122.779 50.5356C122.851 50.5396 122.903 50.5516 122.934 50.5715C122.966 50.5875 122.986 50.6094 122.994 50.6373C123.002 50.6652 123.002 50.6971 122.994 50.733C122.99 50.7649 122.986 50.7968 122.982 50.8288C122.855 50.8926 122.686 50.9384 122.475 50.9663C122.268 50.9943 122.047 51.0142 121.812 51.0262C121.836 51.094 121.87 51.1678 121.914 51.2475C121.957 51.3273 121.993 51.4071 122.021 51.4868C122.049 51.5626 122.063 51.6384 122.063 51.7142C122.063 51.7899 122.031 51.8577 121.967 51.9176C121.991 51.9734 121.999 52.0193 121.991 52.0551C121.987 52.091 121.973 52.121 121.949 52.1449C121.926 52.1648 121.896 52.1828 121.86 52.1987C121.824 52.2147 121.788 52.2306 121.752 52.2466C121.629 52.1828 121.504 52.0711 121.376 51.9116C121.253 51.752 121.134 51.5805 121.018 51.3971C120.927 51.5566 120.857 51.6842 120.809 51.78C120.762 51.8717 120.732 51.9395 120.72 51.9834C120.66 52.0512 120.604 52.101 120.553 52.1329C120.501 52.1648 120.449 52.1868 120.397 52.1987C120.346 52.2067 120.292 52.2107 120.236 52.2107C120.185 52.2107 120.129 52.2127 120.069 52.2167C120.053 52.1848 120.015 52.1608 119.956 52.1449C119.896 52.1249 119.84 52.1249 119.789 52.1449C119.808 52.113 119.804 52.0811 119.777 52.0492C119.753 52.0173 119.727 52.0033 119.699 52.0073C119.731 51.9395 119.769 51.8717 119.812 51.8039C119.86 51.7321 119.906 51.6623 119.95 51.5945C119.997 51.5267 120.039 51.4609 120.075 51.3971C120.115 51.3293 120.141 51.2675 120.153 51.2116C120.161 51.1957 120.171 51.1817 120.183 51.1698C120.194 51.1538 120.206 51.1378 120.218 51.1219C120.071 51.1418 119.952 51.1598 119.86 51.1757C119.773 51.1917 119.709 51.2076 119.669 51.2236C119.574 51.2196 119.5 51.2076 119.448 51.1877C119.397 51.1678 119.355 51.1418 119.323 51.1099C119.291 51.074 119.263 51.0361 119.239 50.9963C119.219 50.9564 119.196 50.9145 119.168 50.8706C119.192 50.8387 119.202 50.7968 119.198 50.745C119.194 50.6892 119.17 50.6473 119.126 50.6194C119.162 50.6114 119.19 50.5895 119.21 50.5536C119.233 50.5177 119.239 50.4898 119.227 50.4698C119.307 50.4539 119.391 50.4439 119.478 50.4399C119.57 50.4319 119.659 50.4259 119.747 50.422C119.834 50.414 119.918 50.404 119.997 50.392C120.077 50.3801 120.147 50.3621 120.206 50.3382H120.326C120.246 50.2345 120.181 50.1547 120.129 50.0989C120.077 50.0431 120.035 50.0032 120.003 49.9793C119.968 49.9075 119.95 49.8456 119.95 49.7938C119.95 49.7419 119.96 49.6961 119.98 49.6562C119.999 49.6123 120.025 49.5705 120.057 49.5306C120.089 49.4907 120.121 49.4468 120.153 49.399C120.192 49.395 120.238 49.375 120.29 49.3391C120.346 49.3032 120.378 49.2614 120.385 49.2135C120.405 49.2374 120.439 49.2474 120.487 49.2434C120.535 49.2354 120.567 49.2215 120.582 49.2015C120.63 49.2534 120.676 49.3112 120.72 49.375C120.764 49.4388 120.805 49.5027 120.845 49.5665C120.889 49.6263 120.931 49.6841 120.97 49.74C121.014 49.7918 121.062 49.8337 121.114 49.8656C121.173 49.8257 121.231 49.7719 121.287 49.7041C121.343 49.6363 121.4 49.5744 121.46 49.5186C121.52 49.4628 121.583 49.4189 121.651 49.387C121.719 49.3551 121.79 49.3431 121.866 49.3511C121.914 49.2993 121.955 49.2654 121.991 49.2494C122.027 49.2334 122.061 49.2295 122.093 49.2374C122.128 49.2414 122.16 49.2534 122.188 49.2733C122.22 49.2893 122.252 49.3052 122.284 49.3212C122.276 49.4408 122.224 49.5864 122.128 49.7579C122.033 49.9294 121.922 50.1049 121.794 50.2844C121.878 50.2923 121.971 50.2963 122.075 50.2963C122.178 50.2963 122.278 50.3023 122.373 50.3143C122.469 50.3262 122.554 50.3482 122.63 50.3801C122.706 50.412 122.755 50.4638 122.779 50.5356Z" fill="#292929"/>
<path d="M37.3801 1.33408C37.4547 1.33806 37.5086 1.35003 37.5417 1.36997C37.5749 1.38592 37.5956 1.40786 37.6039 1.43578C37.6122 1.4637 37.6122 1.4956 37.6039 1.5315C37.5998 1.5634 37.5956 1.59531 37.5915 1.62721C37.4588 1.69103 37.2827 1.73689 37.063 1.76481C36.8474 1.79273 36.6173 1.81267 36.3728 1.82463C36.3976 1.89243 36.4329 1.96622 36.4785 2.04598C36.5241 2.12575 36.5614 2.20551 36.5904 2.28528C36.6194 2.36106 36.6339 2.43683 36.6339 2.51261C36.6339 2.58839 36.6008 2.65619 36.5344 2.71601C36.5593 2.77185 36.5676 2.81771 36.5593 2.85361C36.5552 2.8895 36.5407 2.91941 36.5158 2.94334C36.4909 2.96328 36.4598 2.98123 36.4225 2.99718C36.3852 3.01314 36.3479 3.02909 36.3106 3.04504C36.1821 2.98123 36.0515 2.86956 35.9189 2.71003C35.7904 2.5505 35.666 2.379 35.5458 2.19554C35.4505 2.35507 35.3779 2.4827 35.3282 2.57842C35.2784 2.67015 35.2473 2.73795 35.2349 2.78182C35.1727 2.84962 35.1147 2.89947 35.0608 2.93138C35.0069 2.96328 34.953 2.98522 34.8991 2.99718C34.8452 3.00516 34.7893 3.00915 34.7312 3.00915C34.6774 3.00915 34.6193 3.01114 34.5571 3.01513C34.5406 2.98323 34.5012 2.9593 34.439 2.94334C34.3768 2.9234 34.3188 2.9234 34.2649 2.94334C34.2856 2.91144 34.2815 2.87953 34.2525 2.84762C34.2276 2.81572 34.2006 2.80176 34.1716 2.80575C34.2048 2.73795 34.2442 2.67015 34.2898 2.60235C34.3395 2.53056 34.3872 2.46076 34.4328 2.39296C34.4825 2.32516 34.5261 2.25935 34.5634 2.19554C34.6048 2.12774 34.6318 2.06592 34.6442 2.01009C34.6525 1.99413 34.6628 1.98018 34.6753 1.96821C34.6877 1.95226 34.7002 1.93631 34.7126 1.92035C34.5592 1.94029 34.4349 1.95824 34.3395 1.97419C34.2483 1.99015 34.182 2.0061 34.1405 2.02205C34.0411 2.01806 33.9644 2.0061 33.9105 1.98616C33.8566 1.96622 33.8131 1.94029 33.7799 1.90839C33.7467 1.87249 33.7177 1.8346 33.6928 1.79472C33.6721 1.75484 33.6472 1.71296 33.6182 1.66909C33.6431 1.63718 33.6535 1.59531 33.6493 1.54346C33.6452 1.48762 33.6203 1.44575 33.5747 1.41783C33.612 1.40985 33.641 1.38792 33.6618 1.35202C33.6866 1.31613 33.6928 1.28821 33.6804 1.26827C33.7633 1.25232 33.8504 1.24235 33.9416 1.23836C34.0369 1.23038 34.1302 1.2244 34.2214 1.22041C34.3126 1.21243 34.3996 1.20246 34.4825 1.1905C34.5654 1.17853 34.638 1.16059 34.7002 1.13666H34.8245C34.7416 1.03296 34.6732 0.953196 34.6193 0.897361C34.5654 0.841525 34.5219 0.801642 34.4887 0.777713C34.4514 0.705924 34.4328 0.644106 34.4328 0.592258C34.4328 0.540411 34.4431 0.494545 34.4639 0.454663C34.4846 0.410792 34.5115 0.368915 34.5447 0.329032C34.5779 0.28915 34.611 0.245279 34.6442 0.197419C34.6856 0.193431 34.7333 0.17349 34.7872 0.137595C34.8452 0.101701 34.8784 0.059824 34.8867 0.0119648C34.9074 0.0358944 34.9427 0.0458651 34.9924 0.0418768C35.0421 0.0339003 35.0753 0.0199413 35.0919 0C35.1416 0.0518475 35.1893 0.109677 35.2349 0.17349C35.2805 0.237302 35.324 0.301114 35.3655 0.364927C35.4111 0.424751 35.4546 0.482581 35.496 0.538416C35.5416 0.590264 35.5914 0.632141 35.6453 0.664047C35.7075 0.624164 35.7676 0.570323 35.8256 0.502522C35.8836 0.434721 35.9437 0.372903 36.0059 0.317067C36.0681 0.261232 36.1344 0.217361 36.2049 0.185455C36.2754 0.153548 36.35 0.141584 36.4287 0.14956C36.4785 0.0977126 36.522 0.0638123 36.5593 0.0478592C36.5966 0.0319062 36.6319 0.0279179 36.665 0.0358944C36.7023 0.0398827 36.7355 0.0518475 36.7645 0.0717889C36.7977 0.0877419 36.8308 0.103695 36.864 0.119648C36.8557 0.239296 36.8018 0.384868 36.7023 0.556364C36.6028 0.727859 36.4868 0.903343 36.3541 1.08282C36.4412 1.09079 36.5386 1.09478 36.6464 1.09478C36.7541 1.09478 36.8578 1.10076 36.9573 1.11273C37.0567 1.12469 37.1459 1.14663 37.2246 1.17853C37.3034 1.21044 37.3552 1.26229 37.3801 1.33408Z" fill="#292929"/>
<defs>
<filter id="filter0_d" x="29.5078" y="64.7472" width="41.7365" height="4.56445" filterUnits="userSpaceOnUse" color-interpolation-filters="sRGB">
<feFlood flood-opacity="0" result="BackgroundImageFix"/>
<feColorMatrix in="SourceAlpha" type="matrix" values="0 0 0 0 0 0 0 0 0 0 0 0 0 0 0 0 0 0 127 0"/>
<feOffset dy="1"/>
<feGaussianBlur stdDeviation="0.5"/>
<feColorMatrix type="matrix" values="0 0 0 0 0 0 0 0 0 0 0 0 0 0 0 0 0 0 0.1 0"/>
<feBlend mode="normal" in2="BackgroundImageFix" result="effect1_dropShadow"/>
<feBlend mode="normal" in="SourceGraphic" in2="effect1_dropShadow" result="shape"/>
</filter>
</defs>
</svg>
